<?xml version="1.0" encoding="utf-8"?>
<!-- Generator: Adobe Illustrator 27.5.0, SVG Export Plug-In . SVG Version: 6.00 Build 0)  -->
<svg version="1.1" xmlns="http://www.w3.org/2000/svg" xmlns:xlink="http://www.w3.org/1999/xlink" x="0px" y="0px"
	 viewBox="0 0 500 500" style="enable-background:new 0 0 500 500;" xml:space="preserve">
<g id="BACKGROUND">
	<g id="XMLID_72_">
		<rect id="XMLID_73_" style="fill:#FFFFFF;" width="500" height="500"/>
	</g>
</g>
<g id="OBJECTS">
	<g id="XMLID_71_">
		<g style="opacity:0.35;">
			<path id="XMLID_197_" style="fill:#C3ECFE;" d="M446.104,300.171c-7.403-26.557,16.131-27.582,16.648-61.802
				c0.212-13.996-7.456-28.25-25.904-34.788c-9.066-3.213-18.104-5.422-26.171-10.531c-18.383-11.644-18.051-33.798-23.066-52.684
				c-11.014-41.482-97.294-74.461-140.2-73.389c-30.93,0.772-45.199,15.68-73.398,41.934
				c-19.294,17.964-53.289,16.335-43.383,62.748c8.823,41.34-11.992,38.27-31.053,53.532c-19.021,15.23-32.95,33.397-25.38,54.016
				c8.348,22.737-42.751,35.786-51.864,65.259c-6.181,19.991,26.288,21.68,48.385,21.68s211.158-1.7,291.125,0.665
				c21.523,0.637,90.194,6.499,99.908-20.332C468.363,328.217,451.274,318.717,446.104,300.171z"/>
		</g>
		<g id="XMLID_2_">
			<path style="fill:none;stroke:#C3ECFE;stroke-width:1.393;stroke-miterlimit:10;" d="M470.648,291.9
				c-15.981,37.192-46.769,67.546-83.677,84.003"/>
			<g id="XMLID_4_">
				<g>
					<path id="XMLID_6_" style="fill:#C3ECFE;" d="M465.957,301.794c5.581-4.645,9.4-11.357,10.543-18.527
						c0.28-1.758,0.337-3.759-0.844-5.09c-0.325-0.366-0.754-0.668-1.241-0.718c-0.784-0.079-1.474,0.497-1.997,1.086
						c-2.776,3.12-3.739,7.434-4.216,11.583C467.726,294.276,466.818,297.32,465.957,301.794"/>
				</g>
				<g>
					<path id="XMLID_7_" style="fill:#C3ECFE;" d="M458.369,314.464c3.281-6.477,4.125-14.154,2.331-21.19
						c-0.44-1.724-1.181-3.585-2.794-4.338c-0.443-0.207-0.957-0.315-1.424-0.167c-0.751,0.238-1.156,1.041-1.403,1.789
						c-1.311,3.965-0.484,8.308,0.723,12.305C457.011,306.862,457.385,310.015,458.369,314.464"/>
				</g>
				<g>
					<path id="XMLID_8_" style="fill:#C3ECFE;" d="M447.202,330.05c4.048-6.028,5.825-13.543,4.904-20.746
						c-0.225-1.765-0.734-3.702-2.242-4.647c-0.415-0.26-0.912-0.429-1.393-0.339c-0.775,0.144-1.274,0.892-1.611,1.604
						c-1.786,3.775-1.496,8.186-0.786,12.301C446.784,322.338,446.77,325.514,447.202,330.05"/>
				</g>
				<g>
					<path id="XMLID_9_" style="fill:#C3ECFE;" d="M434.369,343.707c4.048-6.028,5.825-13.543,4.904-20.746
						c-0.226-1.765-0.734-3.702-2.242-4.647c-0.415-0.26-0.912-0.429-1.393-0.34c-0.775,0.145-1.274,0.892-1.611,1.604
						c-1.786,3.775-1.496,8.186-0.786,12.301C433.951,335.995,433.936,339.171,434.369,343.707"/>
				</g>
				<g>
					<path id="XMLID_10_" style="fill:#C3ECFE;" d="M415.147,359.468c4.651-5.576,7.196-12.867,7.027-20.126
						c-0.042-1.779-0.347-3.759-1.749-4.855c-0.385-0.301-0.862-0.521-1.35-0.482c-0.785,0.064-1.36,0.755-1.769,1.429
						c-2.167,3.569-2.336,7.987-2.056,12.154C415.529,351.754,415.186,354.911,415.147,359.468"/>
				</g>
				<g>
					<path id="XMLID_11_" style="fill:#C3ECFE;" d="M400.087,369.535c4.575-4.965,7.529-11.889,8.155-19.115
						c0.153-1.771,0.102-3.773-0.982-5.032c-0.298-0.346-0.683-0.623-1.105-0.644c-0.679-0.033-1.245,0.583-1.666,1.201
						c-2.235,3.277-2.849,7.641-3.051,11.81C401.234,361.927,400.605,365.018,400.087,369.535"/>
				</g>
				<g>
					<path id="XMLID_12_" style="fill:#C3ECFE;" d="M454.567,320.044c7.365,1.214,15.31-0.31,21.932-4.208
						c1.623-0.955,3.305-2.246,3.649-4.046c0.094-0.495,0.07-1.028-0.198-1.437c-0.433-0.658-1.345-0.807-2.162-0.819
						c-4.328-0.065-8.488,2.068-12.202,4.466C461.872,316.398,458.793,317.726,454.567,320.044"/>
				</g>
				<g>
					<path id="XMLID_13_" style="fill:#C3ECFE;" d="M445.544,331.837c6.862,2.937,14.941,3.354,22.302,1.15
						c1.804-0.54,3.746-1.392,4.509-3.058c0.21-0.458,0.314-0.982,0.151-1.443c-0.263-0.743-1.114-1.105-1.904-1.311
						c-4.188-1.096-8.736-0.018-12.915,1.424C453.508,330.04,450.201,330.595,445.544,331.837"/>
				</g>
				<g>
					<path id="XMLID_14_" style="fill:#C3ECFE;" d="M432.065,345.591c6.136,4.251,13.968,6.275,21.621,5.588
						c1.876-0.168,3.948-0.615,5.03-2.094c0.297-0.407,0.504-0.899,0.436-1.383c-0.109-0.781-0.87-1.305-1.603-1.666
						c-3.884-1.912-8.556-1.765-12.939-1.189C440.228,345.424,436.877,345.306,432.065,345.591"/>
				</g>
				<g>
					<path id="XMLID_15_" style="fill:#C3ECFE;" d="M413.21,361.474c6.926,2.784,15.012,3.021,22.322,0.653
						c1.792-0.58,3.714-1.475,4.44-3.158c0.2-0.462,0.292-0.988,0.118-1.446c-0.28-0.737-1.138-1.079-1.933-1.269
						c-4.211-1.003-8.734,0.176-12.88,1.711C421.132,359.5,417.838,360.128,413.21,361.474"/>
				</g>
				<g>
					<path id="XMLID_16_" style="fill:#C3ECFE;" d="M397.964,370.577c4.931,5.604,12.045,9.455,19.638,10.632
						c1.861,0.289,3.98,0.355,5.386-0.821c0.386-0.323,0.706-0.751,0.757-1.238c0.082-0.784-0.53-1.476-1.155-2.003
						c-3.309-2.791-7.879-3.775-12.271-4.271C405.926,372.381,402.702,371.459,397.964,370.577"/>
				</g>
			</g>
		</g>
		<g id="XMLID_5_">
			<g id="XMLID_17_">
				<path style="fill:#599FD2;" d="M380.286,213.66c-0.196-0.01-0.358-0.165-0.372-0.366l-0.14-1.989
					c-0.016-0.217,0.148-0.406,0.366-0.421c0.215-0.021,0.405,0.148,0.421,0.366l0.14,1.989c0.016,0.217-0.148,0.406-0.366,0.421
					C380.319,213.66,380.303,213.66,380.286,213.66z"/>
			</g>
			<g id="XMLID_18_">
				<g id="XMLID_19_">
					<polygon style="fill:#C3ECFE;" points="389.221,304.052 383.964,304.422 378.115,219.664 380.743,219.479 383.372,219.295 
											"/>
				</g>
			</g>
			<polygon style="fill:#C3ECFE;" points="380.783,212.441 379.721,212.516 378.115,219.664 383.372,219.295 			"/>
		</g>
		<g id="XMLID_20_">
			<path style="fill:none;stroke:#C3ECFE;stroke-width:1.393;stroke-miterlimit:10;" d="M123.566,233.534
				c9.348,51.085,44.964,96.633,92.288,118.024"/>
			<g id="XMLID_22_">
				<g>
					<path id="XMLID_24_" style="fill:#C3ECFE;" d="M125.933,244.226c-4.405-5.773-6.632-13.167-6.147-20.412
						c0.119-1.776,0.509-3.74,1.958-4.774c0.398-0.284,0.884-0.483,1.37-0.423c0.782,0.098,1.326,0.814,1.705,1.504
						c2.01,3.66,1.988,8.081,1.527,12.231C125.885,236.502,126.091,239.672,125.933,244.226"/>
				</g>
				<g>
					<path id="XMLID_25_" style="fill:#C3ECFE;" d="M130.506,258.269c-1.754-7.046-0.866-14.718,2.452-21.176
						c0.813-1.583,1.951-3.231,3.691-3.606c0.478-0.103,1.003-0.093,1.425,0.155c0.679,0.4,0.894,1.272,0.969,2.057
						c0.394,4.157-1.38,8.206-3.449,11.834C133.525,251.16,132.457,254.151,130.506,258.269"/>
				</g>
				<g>
					<path id="XMLID_26_" style="fill:#C3ECFE;" d="M137.916,275.952c-2.602-6.779-2.658-14.501-0.155-21.317
						c0.613-1.67,1.541-3.445,3.222-4.03c0.462-0.161,0.985-0.215,1.433-0.02c0.723,0.314,1.043,1.153,1.213,1.923
						c0.899,4.078-0.367,8.314-1.976,12.167C140.043,268.527,139.349,271.627,137.916,275.952"/>
				</g>
				<g>
					<path id="XMLID_27_" style="fill:#C3ECFE;" d="M147.381,292.126c-2.602-6.779-2.659-14.501-0.155-21.317
						c0.613-1.67,1.541-3.445,3.222-4.03c0.462-0.161,0.985-0.215,1.433-0.02c0.723,0.314,1.043,1.154,1.213,1.923
						c0.899,4.078-0.367,8.314-1.976,12.167C149.508,284.702,148.814,287.801,147.381,292.126"/>
				</g>
				<g>
					<path id="XMLID_28_" style="fill:#C3ECFE;" d="M162.605,311.776c-3.29-6.473-4.146-14.148-2.362-21.186
						c0.437-1.725,1.176-3.586,2.787-4.342c0.443-0.208,0.957-0.316,1.424-0.169c0.751,0.237,1.157,1.039,1.405,1.787
						c1.317,3.963,0.496,8.307-0.705,12.306C163.952,304.171,163.583,307.326,162.605,311.776"/>
				</g>
				<g>
					<path id="XMLID_29_" style="fill:#C3ECFE;" d="M175.041,324.948c-3.353-5.86-4.689-13.269-3.687-20.452
						c0.245-1.76,0.742-3.7,2.079-4.686c0.368-0.271,0.805-0.455,1.221-0.381c0.67,0.119,1.083,0.846,1.356,1.543
						c1.448,3.693,1.073,8.084,0.341,12.193C175.62,317.275,175.544,320.429,175.041,324.948"/>
				</g>
				<g>
					<path id="XMLID_30_" style="fill:#C3ECFE;" d="M132.968,264.555c-7.45-0.459-14.855-3.716-20.441-8.992
						c-1.369-1.293-2.721-2.926-2.655-4.758c0.018-0.503,0.16-1.018,0.514-1.357c0.569-0.545,1.491-0.486,2.29-0.316
						c4.234,0.902,7.813,3.909,10.899,7.074C126.66,259.372,129.365,261.353,132.968,264.555"/>
				</g>
				<g>
					<path id="XMLID_31_" style="fill:#C3ECFE;" d="M139.134,278.064c-7.344,1.333-15.313-0.062-21.997-3.852
						c-1.638-0.929-3.341-2.192-3.714-3.986c-0.102-0.493-0.087-1.027,0.175-1.44c0.422-0.665,1.332-0.828,2.148-0.854
						c4.327-0.134,8.52,1.93,12.272,4.268C131.771,274.536,134.871,275.814,139.134,278.064"/>
				</g>
				<g>
					<path id="XMLID_32_" style="fill:#C3ECFE;" d="M149.207,294.477c-6.929,2.776-15.016,3.003-22.323,0.626
						c-1.791-0.582-3.712-1.479-4.436-3.163c-0.199-0.463-0.291-0.989-0.117-1.446c0.28-0.736,1.139-1.078,1.934-1.266
						c4.212-0.997,8.734,0.187,12.878,1.726C141.287,292.494,144.58,293.126,149.207,294.477"/>
				</g>
				<g>
					<path id="XMLID_33_" style="fill:#C3ECFE;" d="M164.046,314.164c-7.372,1.17-15.308-0.403-21.906-4.34
						c-1.617-0.965-3.292-2.266-3.624-4.068c-0.091-0.495-0.064-1.029,0.207-1.436c0.437-0.656,1.35-0.799,2.167-0.806
						c4.329-0.038,8.475,2.119,12.174,4.54C156.763,310.474,159.834,311.82,164.046,314.164"/>
				</g>
				<g>
					<path id="XMLID_34_" style="fill:#C3ECFE;" d="M176.879,326.437c-6.056,4.363-13.85,6.532-21.514,5.986
						c-1.878-0.134-3.959-0.542-5.068-2.001c-0.305-0.401-0.52-0.89-0.462-1.375c0.095-0.782,0.846-1.321,1.572-1.695
						c3.848-1.983,8.522-1.923,12.915-1.427C168.714,326.42,172.063,326.24,176.879,326.437"/>
				</g>
			</g>
		</g>
		<g id="XMLID_23_">
			<path style="fill:none;stroke:#C3ECFE;stroke-width:1.393;stroke-miterlimit:10;" d="M31.446,304.867
				c51.88-2.367,104.264,22.107,135.738,63.417"/>
			<g id="XMLID_35_">
				<g>
					<path id="XMLID_37_" style="fill:#C3ECFE;" d="M42.396,304.772c-6.614-2.995-14.32-3.504-21.271-1.405
						c-1.704,0.515-3.53,1.337-4.212,2.98c-0.188,0.452-0.273,0.97-0.104,1.43c0.271,0.74,1.09,1.109,1.849,1.324
						c4.018,1.137,8.321,0.121,12.262-1.26C34.86,306.46,37.994,305.949,42.396,304.772"/>
				</g>
				<g>
					<path id="XMLID_38_" style="fill:#C3ECFE;" d="M57.108,306.073c-7.26-0.126-14.536,2.462-20.084,7.146
						c-1.36,1.148-2.71,2.627-2.685,4.406c0.007,0.489,0.135,0.999,0.471,1.354c0.542,0.572,1.441,0.586,2.222,0.482
						c4.139-0.55,7.687-3.188,10.757-6.019C50.859,310.611,53.533,308.899,57.108,306.073"/>
				</g>
				<g>
					<path id="XMLID_39_" style="fill:#C3ECFE;" d="M76.003,309.322c-7.19-1.013-14.728,0.667-20.807,4.637
						c-1.49,0.973-3.011,2.276-3.203,4.045c-0.053,0.486,0.011,1.008,0.302,1.401c0.468,0.634,1.358,0.757,2.146,0.75
						c4.176-0.04,8.019-2.225,11.412-4.659C69.246,313.062,72.11,311.69,76.003,309.322"/>
				</g>
				<g>
					<path id="XMLID_40_" style="fill:#C3ECFE;" d="M93.89,314.911c-7.19-1.013-14.728,0.667-20.807,4.637
						c-1.49,0.973-3.011,2.276-3.204,4.045c-0.053,0.486,0.011,1.008,0.302,1.401c0.468,0.634,1.358,0.757,2.146,0.75
						c4.176-0.04,8.019-2.225,11.412-4.659C87.133,318.652,89.997,317.28,93.89,314.911"/>
				</g>
				<g>
					<path id="XMLID_41_" style="fill:#C3ECFE;" d="M116.458,325.333c-7.046-1.752-14.717-0.862-21.175,2.457
						c-1.583,0.814-3.231,1.952-3.605,3.691c-0.103,0.478-0.093,1.004,0.155,1.425c0.4,0.679,1.273,0.894,2.057,0.968
						c4.157,0.393,8.206-1.382,11.833-3.452C109.35,328.353,112.341,327.285,116.458,325.333"/>
				</g>
				<g>
					<path id="XMLID_42_" style="fill:#C3ECFE;" d="M132.087,334.492c-6.463-1.951-13.983-1.588-20.757,1.001
						c-1.66,0.634-3.439,1.554-4.099,3.079c-0.181,0.419-0.263,0.887-0.097,1.275c0.266,0.626,1.068,0.865,1.808,0.975
						c3.924,0.581,8.119-0.77,11.959-2.407C124.74,336.779,127.796,335.997,132.087,334.492"/>
				</g>
				<g>
					<path id="XMLID_43_" style="fill:#C3ECFE;" d="M63.786,307.06c-2.12-7.157-6.958-13.641-13.354-17.899
						c-1.568-1.044-3.463-1.994-5.232-1.518c-0.486,0.131-0.956,0.385-1.207,0.805c-0.404,0.677-0.139,1.562,0.206,2.302
						c1.83,3.923,5.563,6.736,9.341,9.031C57.319,302.077,59.857,304.268,63.786,307.06"/>
				</g>
				<g>
					<path id="XMLID_44_" style="fill:#C3ECFE;" d="M78.335,310.034c-0.351-7.456-3.501-14.908-8.695-20.569
						c-1.273-1.388-2.887-2.763-4.719-2.723c-0.503,0.011-1.02,0.146-1.364,0.494c-0.553,0.561-0.508,1.484-0.349,2.285
						c0.841,4.247,3.795,7.869,6.915,11C73.243,303.652,75.185,306.385,78.335,310.034"/>
				</g>
				<g>
					<path id="XMLID_45_" style="fill:#C3ECFE;" d="M96.591,316.162c1.148-7.376-0.447-15.307-4.404-21.893
						c-0.97-1.615-2.275-3.285-4.078-3.612c-0.496-0.09-1.029-0.061-1.435,0.211c-0.655,0.439-0.795,1.352-0.8,2.169
						c-0.026,4.329,2.144,8.469,4.575,12.161C92.879,308.89,94.235,311.957,96.591,316.162"/>
				</g>
				<g>
					<path id="XMLID_46_" style="fill:#C3ECFE;" d="M119.108,326.2c-0.516-7.446-3.831-14.826-9.15-20.371
						c-1.304-1.359-2.947-2.698-4.778-2.618c-0.503,0.022-1.017,0.168-1.353,0.524c-0.541,0.573-0.475,1.495-0.299,2.293
						c0.935,4.227,3.969,7.783,7.158,10.844C113.876,319.933,115.878,322.623,119.108,326.2"/>
				</g>
				<g>
					<path id="XMLID_47_" style="fill:#C3ECFE;" d="M133.95,335.948c2.891-6.882,3.253-14.964,1-22.309
						c-0.552-1.8-1.417-3.736-3.088-4.489c-0.459-0.207-0.984-0.307-1.444-0.141c-0.741,0.268-1.097,1.121-1.299,1.913
						c-1.068,4.195,0.04,8.736,1.51,12.905C132.1,327.996,132.677,331.299,133.95,335.948"/>
				</g>
			</g>
		</g>
		<g>
			<path id="XMLID_48_" style="fill:#C3ECFE;" d="M195.403,326.819c-7.514-7.027-18.129-10.612-28.366-9.578
				c-6.933,0.7-14.493,4.405-16.019,11.204c-0.727,3.238-0.472,7.534-3.537,8.806c-3,1.245-5.897-1.845-8.977-2.878
				c-5.126-1.72-10.976,4.141-9.247,9.264c0.786,2.329,2.758,4.359,2.594,6.812c-0.223,3.341-4.352,5.082-7.66,4.563
				c-3.308-0.519-6.228-2.45-9.473-3.276c-3.245-0.826-7.447,0.002-8.586,3.15c-1.021,2.822,0.741,6.613-1.475,8.637
				c-0.949,0.867-2.323,1.046-3.603,1.167c-28.094,2.667-59.035,7.707-55.891,12.698c0.86,1.364,3.056,0.93,4.668,0.905
				c59.797-0.936,114.115-1.828,173.892,0.006"/>
		</g>
		<g id="XMLID_49_">
			<polyline style="fill:#88D2FF;" points="363.544,232.89 381.271,302.402 377.899,303.262 355.966,234.823 			"/>
			<g id="XMLID_50_">
				<path style="fill:#9BDFFF;" d="M347.14,234.476c-9.052,2.308-18.686-4.712-21.476-15.65
					c-2.789-10.938,2.307-21.714,11.359-24.023c9.052-2.308,18.686,4.712,21.475,15.65
					C361.288,221.391,356.192,232.168,347.14,234.476z M338.574,200.886c-5.698,1.453-8.762,8.806-6.828,16.39
					s8.144,12.572,13.842,11.118c5.698-1.453,8.761-8.806,6.827-16.39C350.482,204.42,344.272,199.433,338.574,200.886z"/>
			</g>
			<g id="XMLID_51_">
				<path style="fill:#C0EDFF;" d="M356.46,215.158c0.294,1.153,5.39,21.136,5.39,21.136c0.271,1.063-0.371,2.145-1.434,2.416l0,0
					c-1.063,0.271-2.145-0.371-2.416-1.434l-0.609-2.388c0,0-2.83-6.037-10.655-3.548c0,0,9.333-1.166,9.65-1.143
					C356.703,230.221,356.166,214.005,356.46,215.158z"/>
				<path style="fill:#9BDFFF;" d="M361.191,241.751c-2.738,0.698-5.533-0.961-6.232-3.699c0,0-0.323-1.663-0.97-2.582
					c-1.014-1.439-3.081-1.98-6.864-1.015l-0.957-5.343c1.988-0.637,3.418-1.595,5.017-1.483c0.857-0.105,1.569-0.19,2.165-0.26
					c-0.006-1.637-0.038-3.795-0.063-5.449c-0.025-1.759,2.257-3.735,2.251-4.998c-0.009-2.266-2.332-4.555,0.48-4.931l2.766-0.368
					l6.107,23.898C365.589,238.258,363.93,241.053,361.191,241.751z"/>
			</g>
			<g id="XMLID_52_">
				<polyline style="fill:#88D2FF;" points="366.154,232.26 366.206,303.997 369.686,303.994 373.974,232.254 				"/>
				<g id="XMLID_53_">
					<path style="fill:#9BDFFF;" d="M365.482,209.273c-0.008-11.288,7.586-20.477,16.927-20.483
						c9.342-0.007,16.949,9.171,16.957,20.459c0.008,11.288-7.586,20.477-16.927,20.484
						C373.098,229.738,365.49,220.561,365.482,209.273z M371.759,209.268c0.006,7.827,4.796,14.191,10.676,14.187
						c5.88-0.004,10.661-6.376,10.655-14.202c-0.006-7.827-4.796-14.191-10.676-14.186
						C376.534,195.07,371.753,201.441,371.759,209.268z"/>
				</g>
				<g id="XMLID_54_">
					<path style="fill:#C0EDFF;" d="M368.623,213.326c0.001,1.19,0.016,21.812,0.016,21.812c0.001,1.097,0.891,1.986,1.988,1.985
						l0,0c1.097-0.001,1.986-0.891,1.985-1.988l-0.002-2.464c0,0,1.246-6.55,9.444-6.078c0,0-9.331,1.183-9.633,1.284
						C372.12,227.979,368.622,212.136,368.623,213.326z"/>
					<path style="fill:#9BDFFF;" d="M370.629,240.262c2.826-0.002,5.123-2.302,5.121-5.128c0,0-0.099-1.692,0.3-2.742
						c0.625-1.645,2.495-2.682,6.398-2.685l-0.396-5.414c-2.084-0.124-3.707-0.699-5.229-0.194
						c-0.856,0.111-1.567,0.204-2.162,0.285c-0.399-1.587-0.904-3.686-1.289-5.295c-0.412-1.71-3.112-3.059-3.419-4.284
						c-0.553-2.197,1.13-4.991-1.687-4.658l-2.771,0.329l0.006,24.666C365.503,237.967,367.804,240.264,370.629,240.262z"/>
				</g>
			</g>
		</g>
		<g id="XMLID_55_">
			<g id="XMLID_56_">
				<path id="XMLID_70_" style="fill:#88D2FF;" d="M396.354,291.306l-9.022-1.629l14.014-77.596
					c0.115-0.636,0.723-1.058,1.359-0.943l6.72,1.214c0.636,0.115,1.058,0.723,0.943,1.359L396.354,291.306z"/>
			</g>
			<g id="XMLID_57_">
				<path id="XMLID_69_" style="fill:#FE7D90;" d="M409.021,221.168l-9.022-1.629l1.347-7.457c0.115-0.636,0.723-1.058,1.359-0.943
					l6.72,1.214c0.635,0.115,1.058,0.723,0.943,1.359L409.021,221.168z"/>
			</g>
			<g id="XMLID_58_" style="opacity:0.5;">
				<g id="XMLID_59_">
					
						<rect x="402.897" y="217.127" transform="matrix(0.1777 -0.9841 0.9841 0.1777 114.2375 580.1401)" style="fill:#599FD2;" width="2.745" height="9.169"/>
				</g>
			</g>
		</g>
		<g id="XMLID_60_">
			
				<rect id="XMLID_68_" x="403.844" y="223.558" transform="matrix(0.9303 0.3667 -0.3667 0.9303 126.3552 -132.4319)" style="fill:#C3ECFE;" width="15.826" height="85.622"/>
			<g id="XMLID_61_">
				
					<line style="fill:none;stroke:#CCF3FF;stroke-width:1.393;stroke-miterlimit:10;" x1="428.943" y1="230.119" x2="433.796" y2="232.032"/>
				
					<line style="fill:none;stroke:#CCF3FF;stroke-width:1.393;stroke-miterlimit:10;" x1="427.313" y1="234.257" x2="432.165" y2="236.169"/>
				
					<line style="fill:none;stroke:#CCF3FF;stroke-width:1.393;stroke-miterlimit:10;" x1="425.682" y1="238.394" x2="430.534" y2="240.307"/>
				
					<line style="fill:none;stroke:#CCF3FF;stroke-width:1.393;stroke-miterlimit:10;" x1="421.677" y1="241.596" x2="428.904" y2="244.445"/>
				
					<line style="fill:none;stroke:#CCF3FF;stroke-width:1.393;stroke-miterlimit:10;" x1="422.42" y1="246.669" x2="427.273" y2="248.582"/>
				
					<line style="fill:none;stroke:#CCF3FF;stroke-width:1.393;stroke-miterlimit:10;" x1="420.789" y1="250.807" x2="425.642" y2="252.72"/>
				
					<line style="fill:none;stroke:#CCF3FF;stroke-width:1.393;stroke-miterlimit:10;" x1="419.158" y1="254.945" x2="424.011" y2="256.857"/>
				
					<line style="fill:none;stroke:#CCF3FF;stroke-width:1.393;stroke-miterlimit:10;" x1="415.154" y1="258.147" x2="422.38" y2="260.995"/>
				
					<line style="fill:none;stroke:#CCF3FF;stroke-width:1.393;stroke-miterlimit:10;" x1="415.897" y1="263.22" x2="420.749" y2="265.133"/>
				
					<line style="fill:none;stroke:#CCF3FF;stroke-width:1.393;stroke-miterlimit:10;" x1="414.266" y1="267.358" x2="419.119" y2="269.27"/>
				
					<line style="fill:none;stroke:#CCF3FF;stroke-width:1.393;stroke-miterlimit:10;" x1="412.635" y1="271.495" x2="417.488" y2="273.408"/>
				
					<line style="fill:none;stroke:#CCF3FF;stroke-width:1.393;stroke-miterlimit:10;" x1="408.63" y1="274.697" x2="415.857" y2="277.546"/>
				
					<line style="fill:none;stroke:#CCF3FF;stroke-width:1.393;stroke-miterlimit:10;" x1="409.374" y1="279.77" x2="414.226" y2="281.683"/>
				
					<line style="fill:none;stroke:#CCF3FF;stroke-width:1.393;stroke-miterlimit:10;" x1="407.743" y1="283.908" x2="412.595" y2="285.821"/>
				
					<line style="fill:none;stroke:#CCF3FF;stroke-width:1.393;stroke-miterlimit:10;" x1="406.112" y1="288.046" x2="410.964" y2="289.958"/>
				
					<line style="fill:none;stroke:#CCF3FF;stroke-width:1.393;stroke-miterlimit:10;" x1="402.107" y1="291.248" x2="409.333" y2="294.096"/>
				
					<line style="fill:none;stroke:#CCF3FF;stroke-width:1.393;stroke-miterlimit:10;" x1="402.85" y1="296.321" x2="407.703" y2="298.233"/>
				
					<line style="fill:none;stroke:#CCF3FF;stroke-width:1.393;stroke-miterlimit:10;" x1="401.219" y1="300.458" x2="406.072" y2="302.371"/>
				
					<line style="fill:none;stroke:#CCF3FF;stroke-width:1.393;stroke-miterlimit:10;" x1="399.588" y1="304.596" x2="404.441" y2="306.509"/>
			</g>
		</g>
		<path style="fill:#9BDFFF;" d="M414.181,381.822h-73.418l-12.331-111.064c-0.157-1.412,0.949-2.647,2.37-2.647h93.342
			c1.421,0,2.526,1.235,2.369,2.647L414.181,381.822z"/>
		<g>
			<path id="XMLID_64_" style="fill:#CCF3FF;" d="M322.117,386.662c44.221,0.602,88.442,1.205,132.664,1.807
				c1.484,0.02,6.161-1.427-1.899-6.625c-6.827-4.402-28.404-0.442-28.404-0.442s5.023-2.014,4.999-4.612
				c-0.023-2.599-1.993-4.883-4.358-5.961c-2.365-1.078-5.058-1.156-7.653-1.008c-5.28,0.302-10.509,1.472-15.414,3.449
				c2.081-1.28,2.716-4.418,1.296-6.406c-1.42-1.988-4.595-2.405-6.48-0.852c3.314-4.488,8.438-24.379-7.309-33.146
				c-19.738-10.988-34.728-1.946-37.926,4.667c-1.622-6.491-9.07-11.406-13.975-12.624c-11.187-2.778-18.475-1.954-28.919,2.923
				c-3.695,1.725-8.642,7.618-11.098,10.873c-3.847,5.098-4.447,11.878-4.658,18.261c-0.159,4.791-0.181,9.586-0.065,14.378"/>
		</g>
		<g>
			<path id="XMLID_66_" style="opacity:0.4;fill:#A1D7E5;" d="M347.958,393.731c0,2.292-44.539,4.151-99.481,4.151
				s-99.481-1.858-99.481-4.151c0-2.293,44.539-4.151,99.481-4.151S347.958,391.439,347.958,393.731z"/>
			<g id="XMLID_74_">
				<g id="XMLID_219_">
					<path id="XMLID_224_" style="fill:#E8505B;" d="M250.371,104.175c-5.514,0-9.983,4.47-9.983,9.983v12.795h19.967
						c0,0,0-10.162,0-12.795C260.355,108.645,255.885,104.175,250.371,104.175z M250.371,119.888c-3.093,0-5.601-2.508-5.601-5.601
						c0-3.093,2.507-5.601,5.601-5.601s5.601,2.508,5.601,5.601C255.973,117.381,253.465,119.888,250.371,119.888z"/>
				</g>
			</g>
			<g id="XMLID_82_" style="opacity:0.45;">
				<g id="XMLID_220_">
					<path id="XMLID_221_" style="fill:#B03D44;" d="M255.973,114.287c0-3.093-2.508-5.601-5.601-5.601
						c-0.288,0-0.565,0.043-0.841,0.085c0.841-0.325,0.883-0.544,2.273-0.544c3.093,0,5.601,2.508,5.601,5.601
						c0,2.805-1.431,4.325-3.593,4.88C255.011,117.68,255.973,115.991,255.973,114.287z M243.438,125.676v-12.795
						c0-3.473,1.507-6.528,4.197-8.317c-4.182,1.191-7.247,5.031-7.247,9.594v12.795h19.967c0,0,0-0.499,0-1.277H243.438z"/>
				</g>
			</g>
			<path style="fill:#3E89CC;" d="M332.823,393.685H164.131c-5.38,0-9.742-4.362-9.742-9.742V137.367
				c0-5.38,4.361-9.742,9.742-9.742h168.691c5.38,0,9.742,4.361,9.742,9.742v246.576
				C342.564,389.324,338.203,393.685,332.823,393.685z"/>
			<rect id="XMLID_67_" x="165.296" y="138.061" style="fill:#C3ECFE;" width="166.361" height="245.19"/>
			<rect x="171.693" y="145.551" style="fill:#FFFFFF;" width="153.568" height="230.208"/>
			<path id="XMLID_198_" style="fill:#E8505B;" d="M309,132.03v10H187.95v-10c0-0.73,0.11-1.43,0.32-2.09
				c0.89-2.86,3.56-4.93,6.7-4.93h107.01C305.86,125.01,309,128.15,309,132.03z"/>
			<path id="XMLID_195_" style="opacity:0.45;fill:#B03D44;" d="M309,139.53v2.5H187.95v-7.24c0-1.94,0.11-3.54,0.32-4.85
				c0.89-2.86,3.56-4.93,6.7-4.93h0.86c-1.85,1.78-3.2,4.5-3.2,7.28v7.24H309z"/>
			<g>
				<g id="XMLID_87_">
					<g id="XMLID_88_" style="opacity:0.15;">
						
							<line id="XMLID_89_" style="fill:none;stroke:#0964AF;stroke-width:3.1215;stroke-linecap:round;stroke-linejoin:round;stroke-miterlimit:10;" x1="214.281" y1="170.025" x2="239.226" y2="170.025"/>
						
							<line id="XMLID_90_" style="fill:none;stroke:#0964AF;stroke-width:3.1215;stroke-linecap:round;stroke-linejoin:round;stroke-miterlimit:10;" x1="295.205" y1="177.977" x2="314.172" y2="177.977"/>
						
							<line id="XMLID_91_" style="fill:none;stroke:#0964AF;stroke-width:3.1215;stroke-linecap:round;stroke-linejoin:round;stroke-miterlimit:10;" x1="214.281" y1="177.977" x2="286.986" y2="177.977"/>
						
							<line id="XMLID_92_" style="fill:none;stroke:#0964AF;stroke-width:3.1215;stroke-linecap:round;stroke-linejoin:round;stroke-miterlimit:10;" x1="214.281" y1="185.93" x2="314.172" y2="185.93"/>
						
							<line id="XMLID_93_" style="fill:none;stroke:#0964AF;stroke-width:3.1215;stroke-linecap:round;stroke-linejoin:round;stroke-miterlimit:10;" x1="282.421" y1="193.883" x2="314.172" y2="193.883"/>
						
							<line id="XMLID_94_" style="fill:none;stroke:#0964AF;stroke-width:3.1215;stroke-linecap:round;stroke-linejoin:round;stroke-miterlimit:10;" x1="214.281" y1="193.883" x2="274.518" y2="193.883"/>
						
							<line id="XMLID_95_" style="fill:none;stroke:#0964AF;stroke-width:3.1215;stroke-linecap:round;stroke-linejoin:round;stroke-miterlimit:10;" x1="247.412" y1="170.025" x2="314.172" y2="170.025"/>
					</g>
				</g>
				<g id="XMLID_96_">
					<g id="XMLID_97_" style="opacity:0.15;">
						
							<line id="XMLID_98_" style="fill:none;stroke:#0964AF;stroke-width:3.1215;stroke-linecap:round;stroke-linejoin:round;stroke-miterlimit:10;" x1="214.281" y1="227.194" x2="239.226" y2="227.194"/>
						
							<line id="XMLID_99_" style="fill:none;stroke:#0964AF;stroke-width:3.1215;stroke-linecap:round;stroke-linejoin:round;stroke-miterlimit:10;" x1="295.205" y1="235.147" x2="314.172" y2="235.147"/>
						
							<line id="XMLID_100_" style="fill:none;stroke:#0964AF;stroke-width:3.1215;stroke-linecap:round;stroke-linejoin:round;stroke-miterlimit:10;" x1="214.281" y1="235.147" x2="286.986" y2="235.147"/>
						
							<line id="XMLID_101_" style="fill:none;stroke:#0964AF;stroke-width:3.1215;stroke-linecap:round;stroke-linejoin:round;stroke-miterlimit:10;" x1="214.281" y1="243.1" x2="314.172" y2="243.1"/>
						
							<line id="XMLID_102_" style="fill:none;stroke:#0964AF;stroke-width:3.1215;stroke-linecap:round;stroke-linejoin:round;stroke-miterlimit:10;" x1="282.421" y1="251.053" x2="314.172" y2="251.053"/>
						
							<line id="XMLID_103_" style="fill:none;stroke:#0964AF;stroke-width:3.1215;stroke-linecap:round;stroke-linejoin:round;stroke-miterlimit:10;" x1="214.281" y1="251.053" x2="274.518" y2="251.053"/>
						
							<line id="XMLID_104_" style="fill:none;stroke:#0964AF;stroke-width:3.1215;stroke-linecap:round;stroke-linejoin:round;stroke-miterlimit:10;" x1="247.412" y1="227.194" x2="314.172" y2="227.194"/>
					</g>
				</g>
				<g id="XMLID_105_">
					<g id="XMLID_106_" style="opacity:0.15;">
						
							<line id="XMLID_107_" style="fill:none;stroke:#0964AF;stroke-width:3.1215;stroke-linecap:round;stroke-linejoin:round;stroke-miterlimit:10;" x1="214.281" y1="282.364" x2="239.226" y2="282.364"/>
						
							<line id="XMLID_108_" style="fill:none;stroke:#0964AF;stroke-width:3.1215;stroke-linecap:round;stroke-linejoin:round;stroke-miterlimit:10;" x1="295.205" y1="290.317" x2="314.172" y2="290.317"/>
						
							<line id="XMLID_109_" style="fill:none;stroke:#0964AF;stroke-width:3.1215;stroke-linecap:round;stroke-linejoin:round;stroke-miterlimit:10;" x1="214.281" y1="290.317" x2="286.986" y2="290.317"/>
						
							<line id="XMLID_110_" style="fill:none;stroke:#0964AF;stroke-width:3.1215;stroke-linecap:round;stroke-linejoin:round;stroke-miterlimit:10;" x1="214.281" y1="298.27" x2="314.172" y2="298.27"/>
						
							<line id="XMLID_111_" style="fill:none;stroke:#0964AF;stroke-width:3.1215;stroke-linecap:round;stroke-linejoin:round;stroke-miterlimit:10;" x1="282.421" y1="306.222" x2="314.172" y2="306.222"/>
						
							<line id="XMLID_112_" style="fill:none;stroke:#0964AF;stroke-width:3.1215;stroke-linecap:round;stroke-linejoin:round;stroke-miterlimit:10;" x1="214.281" y1="306.222" x2="274.518" y2="306.222"/>
						
							<line id="XMLID_113_" style="fill:none;stroke:#0964AF;stroke-width:3.1215;stroke-linecap:round;stroke-linejoin:round;stroke-miterlimit:10;" x1="247.412" y1="282.364" x2="314.172" y2="282.364"/>
					</g>
				</g>
				<g id="XMLID_114_">
					<g id="XMLID_115_" style="opacity:0.15;">
						
							<line id="XMLID_116_" style="fill:none;stroke:#0964AF;stroke-width:3.1215;stroke-linecap:round;stroke-linejoin:round;stroke-miterlimit:10;" x1="214.281" y1="338.534" x2="239.226" y2="338.534"/>
						
							<line id="XMLID_117_" style="fill:none;stroke:#0964AF;stroke-width:3.1215;stroke-linecap:round;stroke-linejoin:round;stroke-miterlimit:10;" x1="295.205" y1="346.486" x2="314.172" y2="346.486"/>
						
							<line id="XMLID_118_" style="fill:none;stroke:#0964AF;stroke-width:3.1215;stroke-linecap:round;stroke-linejoin:round;stroke-miterlimit:10;" x1="214.281" y1="346.486" x2="286.986" y2="346.486"/>
						
							<line id="XMLID_119_" style="fill:none;stroke:#0964AF;stroke-width:3.1215;stroke-linecap:round;stroke-linejoin:round;stroke-miterlimit:10;" x1="214.281" y1="354.439" x2="314.172" y2="354.439"/>
						
							<line id="XMLID_120_" style="fill:none;stroke:#0964AF;stroke-width:3.1215;stroke-linecap:round;stroke-linejoin:round;stroke-miterlimit:10;" x1="282.421" y1="362.392" x2="314.172" y2="362.392"/>
						
							<line id="XMLID_121_" style="fill:none;stroke:#0964AF;stroke-width:3.1215;stroke-linecap:round;stroke-linejoin:round;stroke-miterlimit:10;" x1="214.281" y1="362.392" x2="274.518" y2="362.392"/>
						
							<line id="XMLID_122_" style="fill:none;stroke:#0964AF;stroke-width:3.1215;stroke-linecap:round;stroke-linejoin:round;stroke-miterlimit:10;" x1="247.412" y1="338.534" x2="314.172" y2="338.534"/>
					</g>
				</g>
				<g id="XMLID_123_">
					<path id="XMLID_124_" style="fill:none;stroke:#2396B5;stroke-width:1.1566;stroke-miterlimit:10;" d="M203.756,190.493
						h-18.665c-1.161,0-2.102-0.941-2.102-2.102v-18.665c0-1.161,0.941-2.102,2.102-2.102h18.664c1.161,0,2.102,0.941,2.102,2.102
						v18.665C205.858,189.552,204.917,190.493,203.756,190.493z"/>
					<path id="XMLID_125_" style="fill:none;stroke:#2396B5;stroke-width:1.1566;stroke-miterlimit:10;" d="M203.756,247.477
						h-18.664c-1.161,0-2.102-0.941-2.102-2.102v-18.665c0-1.161,0.941-2.102,2.102-2.102h18.664c1.161,0,2.102,0.941,2.102,2.102
						v18.665C205.858,246.536,204.917,247.477,203.756,247.477z"/>
					<path id="XMLID_126_" style="fill:none;stroke:#2396B5;stroke-width:1.1566;stroke-miterlimit:10;" d="M203.756,304.461
						h-18.664c-1.161,0-2.102-0.941-2.102-2.102v-18.664c0-1.161,0.941-2.102,2.102-2.102h18.664c1.161,0,2.102,0.941,2.102,2.102
						v18.664C205.858,303.52,204.917,304.461,203.756,304.461z"/>
					<path id="XMLID_127_" style="fill:none;stroke:#2396B5;stroke-width:1.1566;stroke-miterlimit:10;" d="M203.756,361.445
						h-18.665c-1.161,0-2.102-0.941-2.102-2.102v-18.664c0-1.161,0.941-2.102,2.102-2.102h18.664c1.161,0,2.102,0.941,2.102,2.102
						v18.664C205.858,360.504,204.917,361.445,203.756,361.445z"/>
					
						<polyline id="XMLID_130_" style="fill:none;stroke:#FFA829;stroke-width:3.4699;stroke-linecap:round;stroke-linejoin:round;stroke-miterlimit:10;" points="
						185.804,175.033 194.424,185.443 211.009,159.274 					"/>
					
						<polyline id="XMLID_133_" style="fill:none;stroke:#FFA829;stroke-width:3.4699;stroke-linecap:round;stroke-linejoin:round;stroke-miterlimit:10;" points="
						185.804,231.543 194.424,241.953 211.009,215.784 					"/>
				</g>
			</g>
		</g>
	</g>
	<g id="XMLID_77_">
		<path id="XMLID_293_" style="fill:#FFB392;" d="M122.247,248.136c0,0,0.43,2.854,0.702,3.103c0,0-0.273,0.476-1.088,0.521"/>
		<path id="XMLID_65_" style="opacity:0.4;fill:#A1D7E5;" d="M143.63,393.957c0,1.187-10.68,2.148-23.854,2.148
			s-23.854-0.962-23.854-2.148c0-1.187,10.68-2.148,23.854-2.148S143.63,392.771,143.63,393.957z"/>
		<g id="XMLID_86_">
			<path id="XMLID_135_" style="fill:#57C6F2;" d="M130.674,261.459l-5.272,23.156c-0.144,0.631,0.282,1.251,0.923,1.343
				l16.409,2.356c0.571,0.082,1.11-0.288,1.238-0.851l5.272-23.156c0.144-0.631-0.282-1.251-0.923-1.343l-16.409-2.356
				C131.341,260.526,130.802,260.896,130.674,261.459z"/>
			<polygon id="XMLID_136_" style="fill:#E5F8FF;" points="131.701,262.206 126.653,284.376 142.946,286.716 147.993,264.545 			"/>
			<g id="XMLID_137_">
				
					<line id="XMLID_138_" style="fill:none;stroke:#A1D2F0;stroke-width:0.5742;stroke-linecap:round;stroke-linejoin:round;stroke-miterlimit:10;" x1="146.267" y1="266.179" x2="132.422" y2="264.191"/>
				
					<line id="XMLID_139_" style="fill:none;stroke:#A1D2F0;stroke-width:0.5742;stroke-linecap:round;stroke-linejoin:round;stroke-miterlimit:10;" x1="145.801" y1="268.274" x2="131.956" y2="266.286"/>
				
					<line id="XMLID_140_" style="fill:none;stroke:#A1D2F0;stroke-width:0.5742;stroke-linecap:round;stroke-linejoin:round;stroke-miterlimit:10;" x1="140.037" y1="270.011" x2="131.385" y2="268.769"/>
				
					<line id="XMLID_141_" style="fill:none;stroke:#A1D2F0;stroke-width:0.5742;stroke-linecap:round;stroke-linejoin:round;stroke-miterlimit:10;" x1="139.422" y1="271.813" x2="130.77" y2="270.57"/>
				
					<line id="XMLID_142_" style="fill:none;stroke:#A1D2F0;stroke-width:0.5742;stroke-linecap:round;stroke-linejoin:round;stroke-miterlimit:10;" x1="138.807" y1="273.614" x2="130.155" y2="272.371"/>
				
					<line id="XMLID_143_" style="fill:none;stroke:#A1D2F0;stroke-width:0.5742;stroke-linecap:round;stroke-linejoin:round;stroke-miterlimit:10;" x1="141.98" y1="283.568" x2="133.327" y2="282.325"/>
			</g>
		</g>
		<g id="XMLID_272_">
			<path id="XMLID_145_" style="fill:#F2A181;" d="M124.36,284.892c0.929-0.438,1.62-1.248,2.281-2.035
				c0.652-0.776,1.304-1.552,1.956-2.328c0.257-0.306,0.527-0.641,0.556-1.04c-1.093-0.089-1.797,1.331-2.89,1.415
				c0.509-1.8,1.24-3.536,2.171-5.158c0.227-0.396,0.474-0.857,0.313-1.284c-1.181,0.451-2.176,1.291-3.037,2.218
				c-0.605,0.651-1.156,1.352-1.646,2.093c-1.443,2.183-2.336,4.689-2.945,7.234"/>
		</g>
		<g id="XMLID_144_">
			<path id="XMLID_271_" style="fill:#FFBE9D;" d="M119.656,303.543l-11.716-9.885c0,0-5.453,7.395-3.399,14.53
				c1.01,3.508,2.278,5.248,2.829,6.913c0.514,1.555,4.041,23.569,3.778,25.178c-0.263,1.61-2.157,6.113-2.879,10.849
				c-0.869,5.696-0.722,24.253-1.396,29.174c-0.674,4.92,3.87,5.753,4.12,4.088c2.136-14.228,7.777-36.4,8.566-43.513
				C120.348,333.763,120.028,320.737,119.656,303.543z"/>
			<g id="XMLID_268_">
				<path id="XMLID_147_" style="fill:#F2A181;" d="M119.69,317.563l-5.095,11.692c2.148,3.629,3.39,7.912,3.555,12.255
					c0.085,2.256-0.113,4.516-0.051,6.772c0.004,0.16,0.027,0.332,0.069,0.491c0.683-3.344,1.192-6.101,1.391-7.896
					c0.558-5.025,0.561-13.013,0.384-23.326C119.858,317.554,119.775,317.55,119.69,317.563z"/>
			</g>
			<path id="XMLID_266_" style="fill:#FFBE9D;" d="M111.782,379.82c0,0-1.091,5.163-0.797,5.82c0.294,0.658,1.349,2.57,2.43,3.262
				c1.134,0.725,3.646,1.588,3.847,1.902c0.201,0.315,0.214,0.773-0.144,1.054c-0.925,0.727-2.531,1.081-3.581,0.908
				c-3.406-0.562-3.758-2.068-5.742-2.309c-0.342-0.042-0.977,0.465-1.925-0.02c-0.948-0.485-1.408-1.361-1.327-2.185
				c0.141-1.422,0.939-2.594,1.508-3.646c0.569-1.052,0.969-5.865,0.969-5.865"/>
			<path id="XMLID_263_" style="fill:#1B227A;" d="M117.383,392.107c0.248-0.425,0.312-1.068,0.08-1.225
				c-0.32-0.218-1.46-0.972-2.12-1.276c-0.661-0.304-1.708-0.572-1.339-0.373c0.369,0.199-0.31,0.945-0.929,0.907
				c-2.135-0.131-3.709-1.549-4.925-1.854c-1.755-0.439-2.49-2.511-2.567-2.847c-0.332,0.211-1.104,1.879-1.26,2.404
				c-0.141,0.474-0.395,1.341-0.26,1.835c0.093,0.341,0.3,1.028,0.195,1.75c0,0,0.346,0.266,1.262,0.455
				c0.58,0.12,1.358,0.02,1.358,0.02l0.151-1.102c0,0,0.478-0.019,1.086,0.107c0.608,0.126,1.6,0.704,1.659,0.775
				c0.244,0.291,0.439,0.821,0.761,0.984c0.853,0.43,1.713,0.635,2.8,0.698C115.623,393.498,116.959,392.833,117.383,392.107z"/>
		</g>
		<g id="XMLID_146_">
			<path id="XMLID_148_" style="fill:#FFBE9D;" d="M135.655,391.892c-0.252-0.278-2.966-0.72-4.239-1.251
				c-1.213-0.507-2.682-2.136-2.968-2.827c-0.286-0.691-0.22-4.194-0.184-5.665c0.254-10.131,2.126-34.889,2.397-40.818
				c0.471-10.305-0.867-20.942-4.832-37.486l-14.764-11.331c0,0-4.135,7.687-2.75,15.036c0.803,4.264,4.34,4.92,4.938,6.577
				c0.598,1.657,9.531,28.376,9.531,28.376s-1.738,5.776-1.839,12.105c-0.086,5.402,2.364,21.698,2.818,27.906
				c0.054,1.213,0.262,4.117-0.095,5.042c-0.438,1.133-1.555,2.464-1.498,3.892c0.032,0.828,0.631,1.619,1.678,1.944
				c1.046,0.325,1.629-0.28,1.989-0.295c2.081-0.086,2.658,1.345,6.252,1.344c1.108,0,2.715-0.613,3.567-1.483
				C135.984,392.622,135.906,392.171,135.655,391.892z"/>
			<path id="XMLID_149_" style="fill:#1B227A;" d="M135.964,393.161c0.196-0.461,0.17-1.106-0.09-1.224
				c-0.361-0.163-1.643-0.723-2.368-0.915c-0.725-0.193-1.843-0.286-1.434-0.149c0.409,0.137-0.187,0.985-0.83,1.048
				c-2.221,0.22-4.046-0.926-5.344-1.027c-1.873-0.146-2.56-2.075-2.688-2.394c-0.313,0.263-1.237,2.038-1.325,2.583
				c-0.079,0.492-0.218,1.39-0.009,1.857c0.145,0.322,0.455,0.967,0.448,1.698c0,0,0.394,0.206,1.366,0.243
				c0.615,0.024,1.405-0.203,1.405-0.203v-1.115c0,0,0.49-0.096,1.135-0.072c0.645,0.025,1.441,0.354,1.831,0.647
				c0.305,0.23,0.626,0.617,0.986,0.707c1.039,0.261,1.786,0.336,2.916,0.221C134.344,394.824,135.629,393.948,135.964,393.161z"/>
		</g>
		<path id="XMLID_150_" style="fill:#1B227A;" d="M108.249,292.415c-1.002,1.1-4.573,7.051-4.611,11.894
			c-0.038,4.843,1.506,7.993,1.84,8.96c0.914,2.647,2.615,5.014,2.615,5.498c0,0.484,2.662,0.819,8.31,0.464
			c10.435-0.657,14.269-2.615,14.269-2.615s0.341-4.341-0.729-13.76c-0.508-4.473-4.317-11.556-4.317-11.556"/>
		<path id="XMLID_248_" style="fill:#FFBE9D;" d="M98.728,273.064c0,0,1.681,8.351,2.122,9.837
			c0.441,1.486,2.622,10.922,4.688,10.758c2.067-0.164,13.386-9.614,13.386-9.614l-1.603-3.206l-9.963,4.75
			c0,0-0.9-10.786-1.69-13.355"/>
		<g id="XMLID_244_">
			<path id="XMLID_152_" style="fill:#F2A181;" d="M102.58,278.204c1.054,3.728,3.216,7.657,3.863,10.548
				c0.13,0.581,7.029-1.928,7.045-4.519"/>
		</g>
		<path id="XMLID_153_" style="fill:#E8505B;" d="M105.478,261.489c0,0-3.304,0.352-4.979,1.634
			c-4.272,3.268-0.966,15.133-0.966,15.133s-0.211,0.633,2.657,0.472c2.868-0.161,5.167-0.977,5.167-0.977l-0.829-9.721"/>
		<path id="XMLID_154_" style="fill:#B03D44;" d="M101.696,268.206c0,0-0.362,6.975,0.9,10.495c1.249-0.025,2.34-0.307,2.34-0.307
			L101.696,268.206z"/>
		<g id="XMLID_216_">
			<path id="XMLID_156_" style="fill:#FFBE9D;" d="M121.268,239.599c1.991,2.581,1.597,6.212,1.106,9.434
				c-0.248,1.629-0.496,3.259-0.745,4.888c-0.118,0.774-0.275,1.62-0.878,2.119c-0.608,0.504-1.478,0.495-2.266,0.461
				c0.008,1.348,0.016,2.697,0.024,4.046c-2.307,0.056-4.615,0.065-6.922,0.028c-0.001-0.944-0.207-1.888-0.599-2.747
				c-1.129-0.022-1.883-1.154-2.325-2.193c-0.51-1.198-0.881-2.45-1.239-3.701c-0.476-1.661-0.935-3.348-0.978-5.076
				c-0.044-1.727,0.367-3.523,1.464-4.858c0.748-0.91,1.768-1.556,2.812-2.101c1.431-0.747,3.15-1.336,4.626-0.682"/>
		</g>
		<g id="XMLID_158_">
			<path id="XMLID_157_" style="fill:#1B227A;" d="M118.881,251.896c-0.273-1.356-0.253-2.12,0.191-3.023
				c0.147-0.299,0.341-0.581,0.606-0.767c0.359-0.252,0.836-0.301,1.233-0.128c0.259,0.113,0.473,0.324,0.62,0.578
				c0.471-1.821,0.569-3.762,0.433-5.653c-0.215-2.999-2.023-5.317-4.663-6.402c-4.887-2.008-11.909-0.024-13.893,4.773
				c-1.499,3.623-0.739,8.853,2.131,11.89c2.541,2.689,6.195,3.084,9.568,2.53c1.726-0.283,4.389-0.113,5.282-2.46
				c0.069-0.181-0.086-0.362-0.27-0.348C119.418,252.94,118.931,252.147,118.881,251.896z"/>
		</g>
		<g id="XMLID_208_">
			<path id="XMLID_160_" style="fill:#1B227A;" d="M119.256,245.517c0.182,0.285,0.139,0.667,0.309,0.959
				c0.286,0.489,0.667,0.666,1.181,0.905c0.829,0.385,0.635,1.592,0.611,2.132c0.626-0.416,0.727-1.549,0.878-2.124
				c0.17-0.646,0.278-1.309,0.466-1.95c0.183-0.623,0.5-1.211,0.559-1.867c0.203-2.266-1.219-4.929-2.937-6.201
				c-1.251-0.926-3.16-0.888-4.573,0.054c-0.595,0.397-1.042,0.996-1.306,1.661c-0.113,0.285-0.191,0.618-0.051,0.891"/>
		</g>
		<g id="XMLID_205_">
			<path id="XMLID_161_" style="fill:#B03D44;" d="M108.15,261.519c0.117-0.79,0.331-1.711,1.066-2.023
				c0.204-0.086,0.428-0.113,0.649-0.138c2.251-0.249,4.517-0.356,6.781-0.32c0.937,0.015,1.906,0.063,2.744,0.481
				c1.314,0.657,2.037,2.073,2.672,3.398"/>
		</g>
		<g id="XMLID_164_">
			<path id="XMLID_163_" style="fill:#E8505B;" d="M127.218,290.474c-0.315-0.466-1.041-1.022-1.302-1.535
				c-0.625-1.229-1.172-6.406-0.957-7.728c0.23-1.418,1.485-2.18,2.051-5.335c0.729-4.064-0.937-7.223-1.869-8.576
				c-1.317-1.913-0.536-1.902-0.987-4.246c-0.081-0.422-0.176-0.873-0.465-1.167c-0.285-0.29-2.248-1.187-2.633-1.247
				c-3.66-0.567-5.812-0.124-9.512,0.038c-1.83,0.08-3.658,0.294-5.455,0.69c-1.989,0.439-3.722,0.966-4.131,3.665
				c-0.633,4.175-0.101,8.395,1.168,12.355c0.841,2.624,5.864,11.704,4.619,13.461c-0.284,0.402-0.996,1.164-1.082,1.665
				c-0.315,1.835,3.831,2.48,5.606,2.626c2.703,0.222,5.806,0.073,8.516-0.054c2.053-0.096,6.544-0.813,6.863-3.349
				C127.71,291.24,127.464,290.838,127.218,290.474z"/>
		</g>
		<path id="XMLID_165_" style="fill:#B03D44;" d="M126.437,276.662c0.001,0.738-0.412,1.728-0.545,2.117
			c-0.515,0.265-2.557,0.704-3.729,0.169c-0.257-2.439-1.686-7.135-1.686-7.135S126.436,275.979,126.437,276.662z"/>
		<g id="XMLID_166_">
			<path id="XMLID_167_" style="fill:#FFBE9D;" d="M123.815,274.96c0,0,6.761,16.339,9.695,16.339
				c2.134,0,7.366-15.083,7.366-15.083l-3.306-1.565l-3.687,6.317l-3.733-11.782"/>
			<path id="XMLID_168_" style="fill:#FFBE9D;" d="M136.913,275.776c0,0,1.096-1.726,1.016-2.95
				c-0.031-0.467-0.308-2.688-0.076-3.125c0.232-0.437,0.788-1.866,1.105-2.144c0.318-0.278,1.492-0.725,1.779-0.526
				c0.287,0.199,0.645-0.715,1.121-0.635c0.476,0.079,0.873,0.476,0.873,0.913c0,0.437,0.635,0.516,0.715,0.834
				c0.079,0.318,0.04,0.596,0.159,0.834c0.119,0.238,0.47,0.12,0.596,0.715c0.115,0.544-0.04,0.596,0,0.873
				c0.04,0.278,0.278,0.252,0.199,0.781c-0.079,0.529-0.442,1.216-0.759,1.811c-0.318,0.595-0.974,1.341-1.844,1.867
				c-0.43,0.26-0.665,0.714-1.075,1.485"/>
			<path id="XMLID_169_" style="fill:#1B227A;" d="M138.73,263.15c-0.084-0.13-0.314-0.348-0.583-0.158
				c-0.27,0.19-0.188,0.517-0.13,0.649c0.059,0.132,1.999,4.524,1.999,4.524s0.162,0.186,0.471-0.086
				c0.336-0.296,0.228-0.444,0.228-0.444S138.813,263.28,138.73,263.15z"/>
			<g id="XMLID_170_">
				<path id="XMLID_171_" style="fill:#F2A181;" d="M140.836,267.345c-0.381,0.679-0.821,0.897-1.219,1.271
					c-0.311,0.293-0.273,0.481-0.615,0.782c0.601-0.045,0.498-0.4,1.278-0.962c0.361-0.26,0.734-0.543,0.805-0.986
					C141.109,267.297,140.928,267.215,140.836,267.345L140.836,267.345z"/>
			</g>
		</g>
		<g id="XMLID_192_">
			<path id="XMLID_173_" style="fill:#E8505B;" d="M117.596,260.389c1.761,0.091,6.887-0.808,9.735,2.172
				c2.386,2.496,3.754,9.04,4.714,11.694c-2.391,2.437-4.694,4.402-8.316,3.611c-0.137-0.102-1.934-5.758-3.242-6.261"/>
		</g>
		<path id="XMLID_174_" style="fill:#1B227A;" d="M130.681,312.274c0,0,1.163,27.954,0.951,29.992
			c-0.212,2.038-2.48,40.633-2.48,40.633s-4.657,0.815-7.446,0c0,0-3.598-30.056,0-39.421l-1.599-8.974c0,0,0.239,6.675,0,8.034
			c-0.238,1.359-7.435,39.41-7.435,39.41s-4.762-0.127-6.936-2.034c0,0-0.678-26.437,4.282-37.557l-4.539-29.089l2.615-7.402
			L130.681,312.274z"/>
		<g id="XMLID_79_">
			<path id="XMLID_176_" style="fill:#170D54;" d="M120.107,334.504c-0.665-4.299-4.767-19.548-4.942-19.915
				c-2.243-1.738-4.292-3.27-5.038-4.719c1.225,3.677,3.585,3.867,4.468,5.77c2.181,4.698,0.515,3.662,5.608,19.403"/>
		</g>
		<path id="XMLID_177_" style="fill:#1B227A;" d="M100.078,260.203c-0.105,1.487,0.199,2.973,0.223,4.464
			c0.024,1.491-0.296,3.099-1.391,4.111c-1.095,1.012-3.127,1.052-3.905-0.22c0.787,1.644,2.482,2.75,4.276,3.076
			c1.793,0.326,3.664-0.061,5.321-0.82c4.404-2.018,7.337-6.633,7.2-11.488c-0.112-3.991-3.143-7.848-7.376-5.75
			C101.945,254.806,100.272,257.462,100.078,260.203z"/>
	</g>
</g>
<g id="DESIGNED_BY_FREEPIK">
	<g id="XMLID_1_">
		<g id="XMLID_178_">
			<g id="XMLID_179_">
				<path id="XMLID_180_" style="fill:#A5B7C6;" d="M260.104,471.811c-0.432,0.443-0.803,0.931-1.108,1.453l-0.465-0.241
					c-0.067-0.298-0.349-0.503-0.659-0.466c-0.331,0.039-0.567,0.339-0.529,0.67c0.039,0.331,0.339,0.568,0.67,0.529
					c0.066-0.008,0.127-0.026,0.184-0.052l0.451,0.234c-0.251,0.554-0.433,1.139-0.539,1.744l0.747,0.132
					c0.23-1.306,0.85-2.507,1.792-3.473L260.104,471.811z"/>
				<path id="XMLID_181_" style="fill:#A5B7C6;" d="M265.592,469.509c-0.171,0-0.341,0.006-0.51,0.017l-0.074-0.626
					c0.188-0.149,0.296-0.389,0.266-0.645c-0.046-0.393-0.402-0.674-0.795-0.628c-0.393,0.046-0.674,0.402-0.628,0.795
					c0.03,0.254,0.189,0.461,0.404,0.564l0.074,0.624c-0.714,0.116-1.403,0.332-2.06,0.646l0.327,0.684
					c0.934-0.447,1.942-0.673,2.995-0.673c0.496,0,0.993,0.053,1.475,0.158l0.161-0.741
					C266.692,469.568,266.142,469.509,265.592,469.509z"/>
				<path id="XMLID_182_" style="fill:#A5B7C6;" d="M272.194,472.057c0.331-0.04,0.566-0.342,0.526-0.672
					c-0.04-0.331-0.341-0.566-0.672-0.526c-0.309,0.038-0.535,0.304-0.53,0.609l-0.416,0.363c-0.418-0.43-0.889-0.813-1.408-1.139
					l-0.404,0.641c1.134,0.715,2.021,1.726,2.563,2.925l0.69-0.313c-0.251-0.554-0.567-1.072-0.942-1.545l0.402-0.351
					C272.065,472.061,272.129,472.065,272.194,472.057z"/>
				<path id="XMLID_183_" style="fill:#A5B7C6;" d="M265.044,479.718c-0.386,0.023-0.775,0.035-1.157,0.035
					c-0.88,0-1.733-0.061-2.478-0.179c-0.39-0.062-0.846-0.155-1.27-0.292c1.046,1.861,3.069,3.125,5.388,3.125
					c2.855,0,5.262-1.916,5.95-4.504c-0.682,0.449-1.505,0.825-2.459,1.123C267.839,479.393,266.463,479.633,265.044,479.718z"/>
				<path id="XMLID_184_" style="fill:#A5B7C6;" d="M265.592,471.026c-3.352,0-6.08,2.666-6.08,5.943
					c0,0.426,0.046,0.849,0.137,1.261c0.673,0.483,2.706,0.89,5.348,0.731c2.879-0.173,5.297-0.957,6.672-2.159
					c-0.006-0.195-0.021-0.39-0.045-0.582C271.244,473.259,268.65,471.026,265.592,471.026z M263.432,477.54
					c-1.02,0-1.85-0.83-1.85-1.85c0-1.02,0.83-1.85,1.85-1.85c1.02,0,1.85,0.83,1.85,1.85
					C265.282,476.711,264.452,477.54,263.432,477.54z M268.17,476.632c-0.75,0-1.36-0.61-1.36-1.36c0-0.75,0.61-1.361,1.36-1.361
					c0.75,0,1.361,0.61,1.361,1.361C269.53,476.022,268.92,476.632,268.17,476.632z"/>
			</g>
			<path id="XMLID_188_" style="fill:#A5B7C6;" d="M281.595,472.893c-0.295-0.116-0.805-0.309-1.382-0.237
				c-0.551,0.069-0.844,0.341-0.844,1.007v0.866h2.228v1.717h-2.228v5.455h-1.932v-5.455h-1.34v-1.717h1.34v-0.888
				c0-1.68,0.896-2.783,2.568-2.783c0.643,0,1.157,0.122,1.59,0.308L281.595,472.893z"/>
			<path id="XMLID_190_" style="fill:#A5B7C6;" d="M286.298,476.225c-0.177-0.03-0.358-0.046-0.526-0.046
				c-0.896,0-1.51,0.548-1.51,1.613v3.908h-1.932v-7.172h1.873v0.785c0.451-0.673,1.14-0.977,2.021-0.977
				c0.414,0,0.848,0.128,1.094,0.337L286.298,476.225z"/>
			<path id="XMLID_228_" style="fill:#A5B7C6;" d="M293.965,478.103c0,0.222-0.015,0.489-0.037,0.651h-5.085
				c0.207,1.036,0.933,1.488,1.843,1.488c0.622,0,1.295-0.252,1.813-0.688l1.133,1.243c-0.814,0.748-1.85,1.088-3.057,1.088
				c-2.198,0-3.723-1.495-3.723-3.753c0-2.258,1.48-3.797,3.627-3.797C292.544,474.336,293.958,475.868,293.965,478.103z
				 M288.851,477.437h3.175c-0.177-0.918-0.733-1.436-1.562-1.436C289.554,476.001,289.021,476.549,288.851,477.437z"/>
			<path id="XMLID_231_" style="fill:#A5B7C6;" d="M301.618,478.103c0,0.222-0.015,0.489-0.037,0.651h-5.085
				c0.207,1.036,0.933,1.488,1.843,1.488c0.622,0,1.295-0.252,1.814-0.688l1.132,1.243c-0.814,0.748-1.85,1.088-3.057,1.088
				c-2.198,0-3.723-1.495-3.723-3.753c0-2.258,1.48-3.797,3.627-3.797C300.197,474.336,301.611,475.868,301.618,478.103z
				 M296.504,477.437h3.175c-0.178-0.918-0.733-1.436-1.562-1.436C297.207,476.001,296.674,476.549,296.504,477.437z"/>
			<path id="XMLID_234_" style="fill:#A5B7C6;" d="M309.964,478.11c0,2.154-1.495,3.775-3.471,3.775
				c-0.962,0-1.643-0.378-2.109-0.933v3.708h-1.924v-10.133h1.887v0.792c0.466-0.585,1.155-0.984,2.139-0.984
				C308.469,474.336,309.964,475.956,309.964,478.11z M304.287,478.11c0,1.132,0.748,1.976,1.843,1.976
				c1.14,0,1.85-0.881,1.85-1.976c0-1.095-0.71-1.976-1.85-1.976C305.035,476.134,304.287,476.978,304.287,478.11z"/>
			<path id="XMLID_237_" style="fill:#A5B7C6;" d="M313.068,472.182c0,0.696-0.54,1.229-1.236,1.229
				c-0.696,0-1.229-0.533-1.229-1.229c0-0.696,0.533-1.243,1.229-1.243C312.527,470.938,313.068,471.486,313.068,472.182z
				 M312.809,481.7h-1.932v-7.172h1.932V481.7z"/>
			<path id="XMLID_240_" style="fill:#A5B7C6;" d="M316.032,477.082l2.701-2.554h2.368l-3.479,3.375l3.501,3.797h-2.376
				l-2.716-2.901v2.901H314.1v-10.658h1.932V477.082z"/>
		</g>
		<g id="XMLID_243_">
			<path id="XMLID_245_" style="fill:#A5B7C6;" d="M184.412,481.635v-1.055c-0.527,0.718-1.391,1.23-2.387,1.23
				c-1.846,0-3.149-1.406-3.149-3.706c0-2.256,1.289-3.721,3.149-3.721c0.952,0,1.816,0.469,2.387,1.245v-3.765h1.099v9.77H184.412z
				 M184.412,479.716v-3.208c-0.395-0.615-1.245-1.143-2.124-1.143c-1.421,0-2.27,1.172-2.27,2.739c0,1.567,0.85,2.724,2.27,2.724
				C183.168,480.829,184.017,480.332,184.412,479.716z"/>
			<path id="XMLID_252_" style="fill:#A5B7C6;" d="M186.932,478.09c0-2.051,1.465-3.706,3.486-3.706c2.139,0,3.398,1.67,3.398,3.794
				v0.279h-5.727c0.088,1.333,1.025,2.446,2.549,2.446c0.805,0,1.626-0.322,2.182-0.893l0.527,0.718
				c-0.703,0.703-1.655,1.084-2.812,1.084C188.44,481.811,186.932,480.302,186.932,478.09z M190.403,475.293
				c-1.509,0-2.256,1.274-2.314,2.358h4.643C192.718,476.596,192.015,475.293,190.403,475.293z"/>
			<path id="XMLID_259_" style="fill:#A5B7C6;" d="M194.607,480.697l0.571-0.791c0.469,0.542,1.362,1.011,2.329,1.011
				c1.084,0,1.67-0.513,1.67-1.216c0-1.713-4.38-0.659-4.38-3.281c0-1.098,0.952-2.036,2.636-2.036c1.201,0,2.051,0.454,2.622,1.025
				l-0.513,0.762c-0.424-0.513-1.201-0.894-2.109-0.894c-0.967,0-1.567,0.483-1.567,1.113c0,1.552,4.38,0.527,4.38,3.281
				c0,1.187-0.952,2.138-2.783,2.138C196.306,481.811,195.325,481.459,194.607,480.697z"/>
			<path id="XMLID_261_" style="fill:#A5B7C6;" d="M201.477,472.817c0-0.41,0.337-0.747,0.732-0.747c0.41,0,0.747,0.337,0.747,0.747
				c0,0.41-0.337,0.732-0.747,0.732C201.814,473.549,201.477,473.227,201.477,472.817z M201.667,481.635v-7.075h1.099v7.075H201.667
				z"/>
			<path id="XMLID_265_" style="fill:#A5B7C6;" d="M204.582,483.451l0.556-0.82c0.586,0.703,1.289,0.967,2.3,0.967
				c1.172,0,2.27-0.571,2.27-2.124v-1.011c-0.513,0.718-1.377,1.26-2.373,1.26c-1.845,0-3.149-1.377-3.149-3.662
				c0-2.27,1.289-3.676,3.149-3.676c0.952,0,1.802,0.469,2.373,1.245v-1.069h1.098v6.87c0,2.344-1.641,3.076-3.369,3.076
				C206.237,484.506,205.417,484.272,204.582,483.451z M209.709,479.599v-3.091c-0.381-0.615-1.23-1.143-2.109-1.143
				c-1.421,0-2.27,1.128-2.27,2.695c0,1.553,0.849,2.695,2.27,2.695C208.478,480.756,209.328,480.214,209.709,479.599z"/>
			<path id="XMLID_279_" style="fill:#A5B7C6;" d="M217.413,481.635v-4.629c0-1.245-0.63-1.641-1.582-1.641
				c-0.865,0-1.685,0.527-2.095,1.099v5.17h-1.099v-7.075h1.099v1.025c0.498-0.586,1.464-1.201,2.519-1.201
				c1.48,0,2.256,0.747,2.256,2.285v4.966H217.413z"/>
			<path id="XMLID_281_" style="fill:#A5B7C6;" d="M219.932,478.09c0-2.051,1.465-3.706,3.486-3.706c2.139,0,3.398,1.67,3.398,3.794
				v0.279h-5.727c0.088,1.333,1.025,2.446,2.549,2.446c0.806,0,1.626-0.322,2.183-0.893l0.527,0.718
				c-0.703,0.703-1.655,1.084-2.812,1.084C221.441,481.811,219.932,480.302,219.932,478.09z M223.404,475.293
				c-1.509,0-2.256,1.274-2.314,2.358h4.643C225.718,476.596,225.015,475.293,223.404,475.293z"/>
			<path id="XMLID_284_" style="fill:#A5B7C6;" d="M233.35,481.635v-1.055c-0.527,0.718-1.392,1.23-2.388,1.23
				c-1.846,0-3.149-1.406-3.149-3.706c0-2.256,1.289-3.721,3.149-3.721c0.952,0,1.817,0.469,2.388,1.245v-3.765h1.098v9.77H233.35z
				 M233.35,479.716v-3.208c-0.396-0.615-1.245-1.143-2.124-1.143c-1.421,0-2.27,1.172-2.27,2.739c0,1.567,0.849,2.724,2.27,2.724
				C232.105,480.829,232.954,480.332,233.35,479.716z"/>
			<path id="XMLID_6219_" style="fill:#A5B7C6;" d="M239.692,481.635v-9.77h1.098v3.765c0.572-0.776,1.421-1.245,2.388-1.245
				c1.845,0,3.149,1.465,3.149,3.721c0,2.299-1.304,3.706-3.149,3.706c-0.996,0-1.86-0.513-2.388-1.23v1.055H239.692z
				 M242.9,480.829c1.436,0,2.285-1.157,2.285-2.724c0-1.568-0.85-2.739-2.285-2.739c-0.864,0-1.728,0.527-2.109,1.143v3.208
				C241.171,480.332,242.036,480.829,242.9,480.829z"/>
			<path id="XMLID_7656_" style="fill:#A5B7C6;" d="M247.528,483.407c0.161,0.073,0.425,0.117,0.601,0.117
				c0.483,0,0.805-0.161,1.055-0.747l0.469-1.069l-2.959-7.148h1.187l2.358,5.801l2.344-5.801h1.201l-3.545,8.51
				c-0.425,1.025-1.143,1.421-2.08,1.435c-0.234,0-0.601-0.044-0.805-0.103L247.528,483.407z"/>
		</g>
	</g>
</g>
</svg>
